<?xml version="1.0" encoding="iso-8859-1"?>
<!-- Generator: Adobe Illustrator 19.0.0, SVG Export Plug-In . SVG Version: 6.00 Build 0)  -->
<svg version="1.1" id="Layer_1" xmlns="http://www.w3.org/2000/svg" xmlns:xlink="http://www.w3.org/1999/xlink" x="0px" y="0px"
	 viewBox="0 0 512.002 512.002" style="enable-background:new 0 0 512.002 512.002;" xml:space="preserve">
<g>
	<g>
		<g>
			<path d="M429.733,343.339c4.738-72.763-16.131-145.064-34.625-193.154c-18.377-47.789-37.568-80.907-41.595-87.659
				c-1.259-5.35-6.337-21.041-23.657-28.491c-3.877-2.517-23.569-14.974-47.256-24.098c-36.823-14.185-64.138-13.18-81.175,2.994
				c-22.839,21.681-33.39,40.966-31.36,57.319c0.977,7.862,4.589,13.242,7.793,16.573c-0.186,1.672-0.155,3.581,0.26,5.7
				c1.806,9.243,10.159,18.228,24.824,26.701c29.883,17.266,52.746,6.345,67.876-0.881c1.434-0.685,2.825-1.35,4.177-1.969
				c2.26-1.035,3.26-0.574,3.688-0.378c2.499,1.152,4.887,5.396,6.115,8.674c-2.539,14.487-16.283,97.845-6.866,153.449
				c-25.652-8.512-49.277-6.322-66.813-1.787c-20.467,5.295-35.851,14.417-42.806,19.066c-14.267-5.817-31.49-6.985-50.397-3.455
				c-0.01-0.092-0.015-0.151-0.017-0.174c-0.381-4.145-3.86-7.317-8.023-7.317H82.578c-4.451,0-8.057,3.606-8.057,8.057v182.048
				c0,4.451,3.606,8.057,8.057,8.057s8.057-3.606,8.057-8.057v-173.99h12.056c1.651,12.88,6.043,41.329,15.879,74.716
				c15.143,51.401,36.242,91.86,62.854,120.603H82.578c-4.451,0-8.057,3.606-8.057,8.057c0,4.451,3.606,8.057,8.057,8.057h118.755
				c3.369,0,6.381-2.096,7.553-5.254c1.172-3.159,0.256-6.712-2.298-8.91c-0.077-0.067-0.151-0.136-0.229-0.203
				c16.282-6.622,30.434-15.486,42.205-26.443c3.148,0.202,6.191,0.289,9.085,0.289c13.965,0,24.462-1.984,26.643-2.43
				c4.069-0.553,8.314-1.259,12.667-2.162c34.724-7.196,60.487-23.621,74.929-47.667c19.866,2.958,51.902-0.128,62.286-29.639
				C440.717,370.989,436.663,355.056,429.733,343.339z M418.975,384.234c-9.587,27.236-47.807,18.525-49.413,18.146
				c-3.621-0.873-7.379,0.855-9.071,4.181c-27.861,54.794-112.887,47.95-113.739,47.872c-0.883-0.083-1.763-0.014-2.607,0.19
				c-12.708-1.411-26.582-5.176-37.976-13.723c-3.559-2.671-8.612-1.95-11.28,1.609c-2.671,3.559-1.95,8.611,1.609,11.28
				c9.483,7.115,20.141,11.52,30.683,14.156c-9.772,7.084-21.018,12.879-33.607,17.306
				c-49.688-53.612-67.911-141.339-73.519-177.321c13.378-2.596,30.751-3.48,45.541,3.916c2.768,1.384,6.098,1.052,8.548-0.844
				c0.165-0.129,16.941-12.966,41.569-19.21c24.477-6.206,47.738-3.984,69.419,6.57c0.298,0.171,0.605,0.324,0.922,0.457
				c6.618,3.3,13.09,7.371,19.401,12.23c1.464,1.128,3.194,1.674,4.909,1.674c2.415,0,4.804-1.081,6.39-3.142
				c2.715-3.526,2.057-8.585-1.469-11.3c-6.456-4.971-12.904-9.065-19.289-12.434c-14.027-54.965,4.817-159.23,5.014-160.298
				c0.219-1.195,0.165-2.424-0.157-3.595c-0.433-1.574-4.546-15.522-15.35-20.558c-3.734-1.74-9.753-3.096-17.222,0.328
				c-1.426,0.653-2.894,1.355-4.409,2.079c-14.22,6.791-30.335,14.486-52.868,1.469c-15.669-9.052-17.476-15.403-17.109-16.817
				c1.136-1.758,1.548-3.897,1.132-5.966c-0.463-2.299-1.904-4.282-3.949-5.433c-0.042-0.023-4.271-2.753-5.02-8.79
				c-0.769-6.189,1.648-20.09,26.463-43.646c24.986-23.728,87.21,8.756,109.076,23.27c0.447,0.298,0.922,0.549,1.418,0.752
				c12.631,5.149,14.842,17.593,14.92,18.051c0.159,1.074,0.534,2.105,1.1,3.03c0.807,1.316,76.889,127.027,75.263,256.257
				c-0.378-0.277-0.752-0.541-1.117-0.791c-3.678-2.504-8.69-1.551-11.194,2.126c-2.504,3.678-1.552,8.69,2.126,11.194
				C404.362,338.678,428.964,355.837,418.975,384.234z"/>
			<path d="M294.474,349.802c-43.914,43.329-119.853,26.859-120.617,26.687c-4.334-0.982-8.649,1.738-9.633,6.075
				c-0.986,4.339,1.733,8.656,6.073,9.641c1.472,0.335,17.156,3.769,38.561,3.769c28.848,0,68.087-6.237,96.934-34.7
				c3.167-3.125,3.201-8.227,0.076-11.394C302.743,346.712,297.643,346.676,294.474,349.802z"/>
			<path d="M333.317,145.422c-4.131,1.648-6.143,6.334-4.499,10.466c0.241,0.605,23.924,61.309,11.079,131.941
				c-0.796,4.378,2.108,8.572,6.486,9.369c0.488,0.089,0.972,0.131,1.451,0.131c3.819,0,7.211-2.727,7.918-6.617
				c13.703-75.36-10.915-138.166-11.97-140.802C342.132,145.782,337.446,143.777,333.317,145.422z"/>
		</g>
	</g>
</g>
<g>
</g>
<g>
</g>
<g>
</g>
<g>
</g>
<g>
</g>
<g>
</g>
<g>
</g>
<g>
</g>
<g>
</g>
<g>
</g>
<g>
</g>
<g>
</g>
<g>
</g>
<g>
</g>
<g>
</g>
</svg>
